<svg width="65" height="60" viewBox="0 0 65 60" fill="none" xmlns="http://www.w3.org/2000/svg">
<path d="M22.3438 56.1328H10.1562C6.79199 56.1328 4.0625 53.6133 4.0625 50.5078V9.25781C4.0625 6.15234 6.79199 3.63281 10.1562 3.63281H22.3438C25.708 3.63281 28.4375 6.15234 28.4375 9.25781V50.5078C28.4375 53.6133 25.708 56.1328 22.3438 56.1328ZM60.9375 50.5078V9.25781C60.9375 6.15234 58.208 3.63281 54.8438 3.63281H42.6562C39.292 3.63281 36.5625 6.15234 36.5625 9.25781V50.5078C36.5625 53.6133 39.292 56.1328 42.6562 56.1328H54.8438C58.208 56.1328 60.9375 53.6133 60.9375 50.5078Z" fill="url(#paint0_linear_136_135)"/>
<defs>
<linearGradient id="paint0_linear_136_135" x1="32.5" y1="3.63281" x2="32.5" y2="56.1328" gradientUnits="userSpaceOnUse">
<stop stop-color="white"/>
<stop offset="1" stop-color="#C7C3C3"/>
</linearGradient>
</defs>
</svg>
