<svg width="43" height="34" viewBox="0 0 43 34" fill="none" xmlns="http://www.w3.org/2000/svg">
<g clip-path="url(#clip0_132_86)">
<path d="M42.4121 29.398L34.0389 22.7773C33.6609 22.4785 33.1486 22.3125 32.6111 22.3125H31.2422C33.5602 19.9684 34.9375 17.0199 34.9375 13.8125C34.9375 6.18242 27.1186 0 17.4687 0C7.81894 0 0 6.18242 0 13.8125C0 21.4426 7.81894 27.625 17.4687 27.625C21.5252 27.625 25.2541 26.5359 28.2187 24.7031V25.7855C28.2187 26.2105 28.4287 26.6156 28.8066 26.9145L37.1799 33.5352C37.9693 34.1594 39.2459 34.1594 40.027 33.5352L42.4037 31.6559C43.1932 31.0316 43.1932 30.0223 42.4121 29.398ZM17.4687 22.3125C11.5311 22.3125 6.71875 18.5141 6.71875 13.8125C6.71875 9.11758 11.5227 5.3125 17.4687 5.3125C23.4064 5.3125 28.2187 9.11094 28.2187 13.8125C28.2187 18.5074 23.4148 22.3125 17.4687 22.3125Z" fill="url(#paint0_linear_132_86)"/>
</g>
<defs>
<linearGradient id="paint0_linear_132_86" x1="21.4984" y1="0" x2="21.4984" y2="34.0033" gradientUnits="userSpaceOnUse">
<stop stop-color="white"/>
<stop offset="1" stop-color="#A2A1A1"/>
</linearGradient>
<clipPath id="clip0_132_86">
<rect width="43" height="34" fill="white"/>
</clipPath>
</defs>
</svg>
