<svg width="38" height="56" viewBox="0 0 38 56" fill="none" xmlns="http://www.w3.org/2000/svg">
<path d="M14.1651 41.5105V40.5543C14.1873 40.477 14.2245 40.4066 14.2393 40.3293C14.5659 38.3184 16.3323 36.7293 18.4029 36.5957C20.7186 36.441 22.6779 37.6925 23.3162 39.7316C23.3979 39.9988 23.4572 40.28 23.5314 40.5543V41.5105C23.5092 41.5738 23.4721 41.63 23.4646 41.7003C23.1455 43.5566 21.7354 44.9699 19.8057 45.3706C19.6572 45.3988 19.5088 45.4409 19.3604 45.4761H18.351C18.2842 45.455 18.2174 45.4199 18.1506 45.4128C16.2209 45.1175 14.7514 43.8167 14.3061 42.0097C14.2615 41.8339 14.2096 41.6722 14.1651 41.5105ZM23.5315 14.4825L23.5314 15.4388C23.5092 15.5161 23.4721 15.5864 23.4646 15.6638C23.1307 17.6888 21.3568 19.2708 19.2639 19.3974C16.9557 19.538 15.0037 18.2724 14.3729 16.2263C14.2912 15.9661 14.2318 15.6989 14.165 15.4387V14.4825C14.1873 14.4192 14.2244 14.363 14.2393 14.2997C14.5955 12.4716 15.7162 11.2762 17.5865 10.7067C17.8314 10.6294 18.0912 10.5872 18.3436 10.5239H19.3529C19.4197 10.545 19.4865 10.5801 19.5533 10.5872C21.4904 10.8895 22.9525 12.1833 23.3979 13.9903C23.4424 14.1591 23.487 14.3208 23.5315 14.4825ZM23.5314 27.5184V28.4747C23.5092 28.552 23.4721 28.6223 23.4572 28.6997C23.1232 30.7176 21.2826 32.3419 19.2045 32.4262C16.8666 32.5247 14.885 31.1887 14.3283 29.1286C14.2689 28.9106 14.217 28.6926 14.165 28.4747V27.5184C14.1873 27.4411 14.2244 27.3708 14.2393 27.2934C14.5658 25.2755 16.4139 23.6512 18.492 23.5598C20.8299 23.4544 22.8115 24.7973 23.3682 26.8575C23.4275 27.0825 23.4795 27.3005 23.5314 27.5184Z" fill="black"/>
</svg>
